<svg xmlns="http://www.w3.org/2000/svg" viewBox="0 0 64 64" role="img" aria-label="Solitario Napoleón">
  <rect width="64" height="64" rx="12" fill="#0b3d1f"/>
  <!-- Carta trasera, ligeramente girada -->
  <rect x="14" y="13" width="28" height="38" rx="4" fill="#e8e2d0" transform="rotate(-12 28 32)"/>
  <!-- Carta delantera -->
  <rect x="22" y="15" width="28" height="38" rx="4" fill="#fdfaf3" stroke="#0b3d1f" stroke-width="1.5"/>
  <!-- Corazón -->
  <path d="M36 44.5c-5.2-3.6-8.4-6.6-8.4-9.8 0-2.3 1.8-3.9 3.9-3.9 1.8 0 3.4 1.1 4.5 2.6 1.1-1.5 2.7-2.6 4.5-2.6 2.1 0 3.9 1.6 3.9 3.9 0 3.2-3.2 6.2-8.4 9.8z" fill="#c1272d"/>
  <!-- Pica pequeña, esquina superior -->
  <path d="M28.5 19c2.6 2.4 4 3.7 4 5.2a2 2 0 0 1-3.4 1.4c.1.9.5 1.6 1.1 2.1h-3.4c.6-.5 1-1.2 1.1-2.1a2 2 0 0 1-3.4-1.4c0-1.5 1.4-2.8 4-5.2z" fill="#1a1a1a"/>
</svg>
